<svg width="687" height="148" viewBox="0 0 687 148" fill="none" xmlns="http://www.w3.org/2000/svg">
<path fill-rule="evenodd" clip-rule="evenodd" d="M421.577 115.74C429.117 115.74 436.256 113.862 441.522 108.514V110.042C441.522 115.813 440.469 122.626 435.688 126.507C430.601 130.606 422.43 131.442 416.174 131.442C413.942 131.442 411.709 131.442 409.487 131.225C409.118 131.16 408.738 131.177 408.376 131.275C408.014 131.372 407.679 131.547 407.394 131.787C407.11 132.028 406.883 132.327 406.732 132.663C406.58 133 406.507 133.366 406.518 133.734L406.086 144.852C406.048 145.205 406.085 145.562 406.195 145.901C406.305 146.239 406.486 146.552 406.725 146.819C406.965 147.085 407.258 147.301 407.586 147.451C407.915 147.601 408.272 147.682 408.634 147.69C411.393 147.897 414.258 148 416.911 148C427.737 148 438.878 146.008 447.682 139.401C456.802 132.515 459.35 121.294 459.35 110.496V33.7129C459.392 33.3605 459.352 33.0034 459.234 32.6682C459.115 32.3329 458.921 32.0281 458.667 31.7762C458.412 31.5244 458.102 31.332 457.761 31.2134C457.42 31.0947 457.056 31.0528 456.696 31.0908H444.175C443.819 31.0655 443.462 31.1163 443.128 31.2398C442.794 31.3632 442.491 31.5563 442.241 31.8056C441.991 32.055 441.799 32.3547 441.678 32.684C441.557 33.0133 441.511 33.3644 441.543 33.7129V37.2743C435.814 31.8237 428.495 29.8314 420.544 29.8314C405.896 29.8314 394.228 38.3273 389.774 52.0674C387.647 58.4677 387.225 66.4371 387.225 73.1472C387.225 79.5475 387.52 87.0937 389.331 93.2876C393.786 107.761 406.518 115.74 421.577 115.74ZM611.172 98.0568C604.916 93.8553 603.432 87.5686 603.326 80.6418H655.453C655.809 80.6615 656.165 80.607 656.497 80.4819C656.83 80.3568 657.131 80.164 657.382 79.9162C657.633 79.6683 657.827 79.3711 657.952 79.0442C658.077 78.7173 658.13 78.3681 658.107 78.0197C658.247 72.9796 658.071 67.9359 657.581 62.917C656.622 53.9978 653.863 44.7689 647.292 38.2654C636.045 27.0855 612.067 27.2506 599.651 36.3762C587.235 45.5019 585.54 58.829 585.54 72.982C585.54 80.8482 586.498 89.2409 589.573 96.5807C595.512 110.744 607.928 117.144 623.103 117.144C636.087 117.144 649.093 112.107 656.096 100.885C656.448 100.352 656.578 99.7065 656.458 99.0821C656.339 98.4577 655.979 97.9022 655.453 97.5304L645.976 91.2333C644.596 90.0771 643.111 90.5003 642.258 92.0695C638.12 98.4698 632.181 101.515 624.546 101.515C619.84 101.655 615.195 100.453 611.172 98.0568ZM640.247 65.7455H603.326H603.274C603.747 59.2419 605.127 52.7384 610.645 48.5472C616.69 43.9328 627.189 44.1392 633.139 48.8569C638.867 53.3578 639.815 59.0355 640.247 65.7455ZM557.697 33.0212C546.671 28.0868 530.643 28.2003 522.377 37.9557V33.6819C522.418 33.3295 522.378 32.9724 522.26 32.6372C522.142 32.3019 521.948 31.9971 521.693 31.7453C521.438 31.4934 521.129 31.301 520.788 31.1824C520.447 31.0637 520.083 31.0219 519.723 31.0598H507.412C507.053 31.0219 506.689 31.0637 506.348 31.1824C506.007 31.301 505.697 31.4934 505.442 31.7453C505.187 31.9971 504.994 32.3019 504.875 32.6372C504.757 32.9724 504.717 33.3295 504.759 33.6819V113.087C504.719 113.439 504.76 113.796 504.879 114.13C504.999 114.464 505.192 114.768 505.447 115.02C505.701 115.271 506.01 115.463 506.35 115.583C506.69 115.702 507.053 115.745 507.412 115.709H519.744C520.103 115.745 520.466 115.702 520.806 115.583C521.147 115.463 521.455 115.271 521.71 115.02C521.964 114.768 522.158 114.464 522.277 114.13C522.396 113.796 522.437 113.439 522.398 113.087V62.6279C522.398 57.9102 523.661 53.5023 527.063 50.044C533.107 44.0669 545.523 43.6437 551.462 49.9408C554.622 53.3991 555.675 58.0135 555.675 62.6279V113.118C555.635 113.47 555.676 113.826 555.796 114.161C555.915 114.495 556.108 114.799 556.363 115.051C556.617 115.302 556.926 115.494 557.266 115.614C557.606 115.733 557.969 115.776 558.328 115.74H570.649C571.014 115.778 571.383 115.735 571.728 115.612C572.073 115.489 572.385 115.29 572.64 115.032C572.895 114.773 573.086 114.46 573.199 114.118C573.313 113.776 573.344 113.413 573.293 113.056V57.6728C573.293 46.6581 567.89 37.7389 557.697 33.0212ZM54.6072 51.6748C56.5098 53.6015 57.5729 56.1784 57.5715 58.86H57.582V95.7032C57.5485 96.053 57.5936 96.4058 57.7141 96.7367C57.8347 97.0677 58.0277 97.3687 58.2797 97.6187C58.5316 97.8686 58.8364 98.0614 59.1725 98.1835C59.5086 98.3055 59.868 98.3539 60.2252 98.3252H72.5251C72.8899 98.3643 73.2589 98.324 73.606 98.2072C73.9531 98.0904 74.2697 97.9001 74.5331 97.6497C74.7966 97.3993 75.0005 97.0951 75.1303 96.7586C75.2601 96.4222 75.3126 96.0618 75.2841 95.7032V58.7774C75.2787 51.4575 72.3186 44.4372 67.0505 39.2497C61.7823 34.0622 54.6341 31.129 47.1671 31.0908H19.1554C18.801 31.0628 18.4446 31.1105 18.111 31.2308C17.7773 31.3511 17.4743 31.541 17.2229 31.7875C16.9715 32.0339 16.7777 32.331 16.655 32.6581C16.5323 32.9852 16.4835 33.3345 16.5122 33.6819V45.8116C16.4805 46.161 16.5269 46.513 16.6481 46.8431C16.7693 47.1732 16.9624 47.4735 17.214 47.723C17.4655 47.9726 17.7695 48.1654 18.1048 48.2881C18.44 48.4109 18.7986 48.4605 19.1554 48.4336C28.6014 48.4336 38.0475 48.4336 47.3777 48.5369C50.1118 48.6227 52.7046 49.748 54.6072 51.6748ZM28.5383 115.813H54.9599L54.9704 115.844C55.3281 115.872 55.6878 115.824 56.0243 115.702C56.3609 115.58 56.6662 115.387 56.919 115.137C57.1717 114.887 57.3658 114.587 57.4876 114.256C57.6094 113.925 57.656 113.572 57.6241 113.222V100.947C57.6532 100.615 57.6118 100.28 57.5024 99.9643C57.3929 99.6483 57.218 99.358 56.9884 99.1117C56.7589 98.8654 56.4798 98.6683 56.1687 98.533C55.8577 98.3976 55.5213 98.3269 55.181 98.3252L27.8011 98.4285C14.4271 98.4285 14.1112 77.9784 28.117 77.9784H42.8601C43.2156 77.9981 43.5714 77.9436 43.9039 77.8185C44.2364 77.6934 44.538 77.5006 44.7889 77.2528C45.0397 77.0049 45.234 76.7077 45.359 76.3808C45.484 76.0539 45.5367 75.7047 45.5138 75.3563V63.1854C45.5473 62.8298 45.5027 62.4714 45.3829 62.1342C45.2631 61.7971 45.071 61.489 44.8196 61.2307C44.5681 60.9725 44.2631 60.77 43.9251 60.6371C43.587 60.5042 43.2239 60.4438 42.8601 60.4601H28.117C20.672 60.4519 13.5282 63.3418 8.2558 68.4947C2.98343 73.6477 0.0139531 80.6419 0 87.9402C0 103.538 11.7734 115.813 28.5383 115.813ZM473.03 9.23678V21.4077H473.04C473.01 21.7668 473.061 22.128 473.19 22.4653C473.319 22.8027 473.523 23.1077 473.787 23.3585C474.051 23.6093 474.368 23.7996 474.716 23.9157C475.064 24.0317 475.434 24.0707 475.799 24.0298H488.089C488.446 24.0583 488.806 24.0098 489.143 23.8878C489.479 23.7658 489.784 23.5732 490.037 23.3234C490.29 23.0737 490.484 22.7729 490.606 22.442C490.728 22.1111 490.774 21.7581 490.742 21.4077V9.23678C490.774 8.88639 490.728 8.53341 490.606 8.20251C490.484 7.87162 490.29 7.5708 490.037 7.32107C489.784 7.07135 489.479 6.87876 489.143 6.75675C488.806 6.63474 488.446 6.58625 488.089 6.6147H475.789C475.424 6.57567 475.055 6.61598 474.708 6.73274C474.361 6.84951 474.044 7.03985 473.781 7.29023C473.517 7.54061 473.313 7.84488 473.184 8.18133C473.054 8.51778 473.001 8.87815 473.03 9.23678ZM474.605 115.447C474.948 115.577 475.316 115.632 475.683 115.606H488.194C488.559 115.623 488.923 115.562 489.262 115.428C489.6 115.295 489.906 115.092 490.158 114.832C490.409 114.573 490.601 114.263 490.72 113.925C490.839 113.586 490.883 113.227 490.848 112.871V33.6819C490.881 33.3311 490.836 32.9773 490.715 32.6456C490.594 32.3139 490.4 32.0123 490.147 31.7621C489.893 31.512 489.587 31.3195 489.25 31.1981C488.913 31.0767 488.552 31.0296 488.194 31.0598H475.683C475.324 31.0219 474.96 31.0637 474.619 31.1824C474.278 31.301 473.968 31.4934 473.713 31.7453C473.458 31.9971 473.265 32.3019 473.146 32.6372C473.028 32.9724 472.988 33.3295 473.03 33.6819V112.871C472.985 113.229 473.022 113.592 473.138 113.934C473.254 114.277 473.445 114.59 473.699 114.852C473.952 115.113 474.262 115.316 474.605 115.447ZM667.343 101.02V113.191H667.406C667.383 113.539 667.436 113.888 667.56 114.215C667.685 114.542 667.88 114.839 668.131 115.087C668.382 115.335 668.683 115.528 669.016 115.653C669.348 115.778 669.704 115.832 670.059 115.813H682.401C682.757 115.832 683.113 115.778 683.445 115.653C683.778 115.528 684.079 115.335 684.33 115.087C684.581 114.839 684.775 114.542 684.9 114.215C685.025 113.888 685.078 113.539 685.055 113.191V101.02C685.089 100.664 685.044 100.306 684.924 99.9685C684.805 99.6313 684.612 99.3232 684.361 99.0649C684.11 98.8067 683.805 98.6043 683.467 98.4713C683.129 98.3384 682.765 98.278 682.401 98.2943H669.996C669.633 98.278 669.269 98.3384 668.931 98.4713C668.593 98.6043 668.288 98.8067 668.037 99.0649C667.785 99.3232 667.593 99.6313 667.473 99.9685C667.354 100.306 667.309 100.664 667.343 101.02ZM103.654 113.717C114.69 118.641 130.707 118.538 138.985 108.783L139.006 113.087C138.966 113.439 139.007 113.796 139.126 114.13C139.245 114.464 139.439 114.768 139.694 115.02C139.948 115.271 140.257 115.463 140.597 115.583C140.937 115.702 141.3 115.745 141.659 115.709H153.97C154.329 115.746 154.691 115.703 155.031 115.583C155.371 115.464 155.679 115.271 155.933 115.02C156.186 114.768 156.379 114.464 156.497 114.129C156.615 113.795 156.654 113.439 156.613 113.087V33.6819C156.656 33.3301 156.618 32.9731 156.501 32.6378C156.384 32.3025 156.191 31.9974 155.937 31.7453C155.683 31.4932 155.374 31.3007 155.033 31.182C154.693 31.0633 154.329 31.0215 153.97 31.0598H141.659C141.3 31.0219 140.936 31.0637 140.595 31.1824C140.253 31.301 139.944 31.4934 139.689 31.7453C139.434 31.9971 139.241 32.3019 139.122 32.6372C139.004 32.9724 138.964 33.3295 139.006 33.6819V84.162C139.006 88.8899 137.731 93.2876 134.34 96.7561C128.401 102.836 115.88 103.26 109.941 96.8594C106.782 93.3908 105.728 88.7764 105.728 84.162V33.7129C105.77 33.3605 105.73 33.0034 105.612 32.6682C105.494 32.3329 105.3 32.0281 105.045 31.7762C104.79 31.5244 104.481 31.332 104.14 31.2134C103.798 31.0947 103.435 31.0528 103.075 31.0908H90.7643C90.4034 31.0452 90.0366 31.0803 89.6914 31.1935C89.3463 31.3067 89.0317 31.495 88.7714 31.7442C88.511 31.9935 88.3116 32.2973 88.188 32.6329C88.0645 32.9685 88.02 33.3271 88.0579 33.6819V89.0654C88.0579 100.08 93.4707 109.103 103.654 113.717ZM187.9 113.087V109.103L187.931 109.134C190.378 111.649 193.319 113.651 196.576 115.021C199.834 116.391 203.342 117.099 206.887 117.103C232.876 117.103 242.112 96.2296 242.112 73.1472C242.112 59.4794 239.374 44.7999 227.79 35.984C216.649 27.488 198.083 27.1371 187.9 37.4602V2.62998C187.932 2.27959 187.885 1.92662 187.763 1.59573C187.641 1.26483 187.447 0.964011 187.195 0.714287C186.942 0.464562 186.637 0.271955 186.3 0.149946C185.963 0.0279374 185.604 -0.0205355 185.246 0.00791218H172.725C172.369 -0.0118012 172.014 0.0426791 171.681 0.167762C171.349 0.292844 171.047 0.485682 170.796 0.73352C170.545 0.981357 170.351 1.27856 170.226 1.60548C170.101 1.9324 170.048 2.28158 170.071 2.62998V113.087C170.039 113.438 170.086 113.791 170.208 114.122C170.33 114.452 170.524 114.753 170.776 115.003C171.029 115.253 171.334 115.445 171.671 115.567C172.008 115.689 172.367 115.738 172.725 115.709H185.246C185.605 115.745 185.968 115.702 186.309 115.583C186.649 115.463 186.957 115.271 187.212 115.02C187.466 114.768 187.66 114.464 187.779 114.13C187.898 113.796 187.939 113.439 187.9 113.087ZM205.36 45.2025C220.534 45.2025 224.241 61.2446 224.241 73.4156C224.241 86.0407 221.166 101.525 205.57 101.525C190.501 101.525 188.174 84.6471 188.174 73.3123C188.174 61.9776 190.722 45.2025 205.36 45.2025ZM278.348 98.0568C272.093 93.8553 270.503 87.5686 270.503 80.6418H322.44C322.809 80.6829 323.182 80.6447 323.534 80.5297C323.886 80.4147 324.208 80.2257 324.478 79.976C324.748 79.7263 324.959 79.4219 325.096 79.084C325.233 78.746 325.294 78.3828 325.273 78.0197C325.361 72.9799 325.185 67.9391 324.746 62.917C323.788 53.9978 321.029 44.7689 314.458 38.2654C303.211 27.0855 279.233 27.2506 266.817 36.3762C254.401 45.5019 252.706 58.829 252.706 72.982C252.706 80.8482 253.664 89.2409 256.739 96.5807C262.678 110.744 275.094 117.144 290.164 117.144C303.106 117.144 316.259 112.107 323.262 100.885C323.615 100.353 323.746 99.7086 323.629 99.0843C323.511 98.46 323.154 97.9037 322.63 97.5304L313.152 91.2333C311.773 90.0771 310.288 90.5003 309.435 92.0695C305.307 98.4698 299.357 101.515 291.617 101.515C286.945 101.654 282.333 100.452 278.348 98.0568ZM307.36 65.7455H270.545C270.966 59.2419 272.346 52.7384 277.864 48.5472C283.908 43.9328 294.418 44.1392 300.357 48.8569C306.086 53.3578 306.928 59.0355 307.36 65.7455ZM373.093 30.2237C364.605 30.2237 358.139 33.7851 353.253 40.2887V33.7129C353.295 33.3605 353.255 33.0034 353.137 32.6682C353.018 32.3329 352.824 32.0281 352.57 31.7762C352.315 31.5244 352.005 31.332 351.664 31.2134C351.323 31.0947 350.959 31.0528 350.599 31.0908H338.078C337.724 31.0628 337.368 31.1105 337.034 31.2308C336.7 31.3511 336.397 31.541 336.146 31.7875C335.895 32.0339 335.701 32.331 335.578 32.6581C335.455 32.9852 335.407 33.3345 335.435 33.6819V113.118C335.404 113.468 335.45 113.82 335.571 114.15C335.692 114.48 335.885 114.78 336.137 115.03C336.389 115.279 336.692 115.472 337.028 115.595C337.363 115.718 337.722 115.767 338.078 115.74H350.599C350.962 115.779 351.329 115.737 351.673 115.617C352.017 115.496 352.328 115.301 352.583 115.045C352.839 114.79 353.032 114.481 353.148 114.142C353.264 113.803 353.3 113.442 353.253 113.087V65.6732C353.178 63.4468 353.551 61.2275 354.351 59.1426C355.152 57.0577 356.364 55.148 357.918 53.5229C362.604 48.8672 372.145 46.7716 378.401 49.3937C380.201 49.8169 381.581 49.3937 381.791 47.6078L384.445 35.5194C384.641 34.9271 384.608 34.2852 384.354 33.7147C384.1 33.1443 383.642 32.6847 383.066 32.4225C379.955 30.956 376.545 30.204 373.093 30.2237ZM441.522 72.9614C441.522 76.1099 441.522 79.5165 441.311 82.6135C440.469 93.3082 435.793 100.865 424.02 100.865C420.078 100.93 416.229 99.6918 413.092 97.351C409.955 95.0102 407.714 91.7026 406.728 87.9608C405.243 84.0793 405.138 76.9461 405.138 72.9614C405.138 68.4502 405.349 62.3698 406.939 58.1786C409.487 50.3331 415.427 45.1715 424.02 45.1715C435.477 45.1715 440.469 53.2442 441.311 63.3092C441.522 66.4578 441.522 69.8128 441.522 72.9614ZM677.212 32.6784C672.966 32.6784 669.523 36.1206 669.523 40.3667C669.523 44.6128 672.966 48.055 677.212 48.055C681.458 48.055 684.9 44.6128 684.9 40.3667C684.9 36.1206 681.458 32.6784 677.212 32.6784ZM668.242 40.3667C668.242 35.4129 672.258 31.397 677.212 31.397C682.166 31.397 686.181 35.4129 686.181 40.3667C686.181 45.3205 682.166 49.3364 677.212 49.3364C672.258 49.3364 668.242 45.3205 668.242 40.3667ZM679.326 45.4015C679.234 45.4015 679.17 45.3601 679.133 45.2773L677.311 41.3028C677.293 41.266 677.265 41.2476 677.228 41.2476H675.572C675.526 41.2476 675.503 41.2706 675.503 41.3166V45.2359C675.503 45.2819 675.485 45.3233 675.448 45.3601C675.421 45.3877 675.384 45.4015 675.338 45.4015H674.068C674.022 45.4015 673.981 45.3877 673.944 45.3601C673.916 45.3233 673.903 45.2819 673.903 45.2359V35.9069C673.903 35.8609 673.916 35.8241 673.944 35.7965C673.981 35.7597 674.022 35.7413 674.068 35.7413H677.863C678.424 35.7413 678.921 35.8609 679.354 36.1001C679.786 36.3301 680.122 36.6613 680.361 37.0937C680.6 37.5169 680.72 38.0046 680.72 38.5566C680.72 39.1914 680.554 39.7342 680.223 40.185C679.901 40.6266 679.45 40.9348 678.871 41.1096C678.852 41.1096 678.839 41.1188 678.829 41.1372C678.82 41.1556 678.82 41.174 678.829 41.1924L680.775 45.2083C680.794 45.2451 680.803 45.2727 680.803 45.2911C680.803 45.3647 680.752 45.4015 680.651 45.4015H679.326ZM675.572 37.1213C675.526 37.1213 675.503 37.1443 675.503 37.1903V39.9366C675.503 39.9826 675.526 40.0056 675.572 40.0056H677.642C678.084 40.0056 678.438 39.8768 678.705 39.6192C678.981 39.3524 679.119 39.0028 679.119 38.5704C679.119 38.138 678.981 37.7883 678.705 37.5215C678.438 37.2547 678.084 37.1213 677.642 37.1213H675.572Z" fill="black"/>
</svg>
